<svg width="100" height="81" viewBox="0 0 100 81" fill="none" xmlns="http://www.w3.org/2000/svg">
<g clip-path="url(#clip0_867_20632)">
<path d="M63.4532 22.1612H66.5047L75.1982 13.4678L75.6257 9.77912C59.4501 -4.49762 34.7572 -2.95929 20.4804 13.2163C16.5109 17.7097 13.6313 23.0541 12.0636 28.8385C13.0319 28.4403 14.1049 28.3774 15.1151 28.6541L32.4979 25.787C32.4979 25.787 33.3823 24.3241 33.8392 24.4163C41.5728 15.9241 54.5878 14.9348 63.516 22.1612H63.4532Z" fill="#EA4335"/>
<path d="M87.5801 28.8385C85.5807 21.4822 81.4813 14.8678 75.7765 9.80847L63.5788 22.0062C68.7303 26.2146 71.6645 32.5565 71.5387 39.2087V41.3757C77.5369 41.3757 82.395 46.238 82.395 52.2321C82.395 58.2303 77.5327 63.0884 71.5387 63.0884H49.8219L47.6548 65.2849V78.3083L49.8219 80.4754H71.5387C83.9879 80.5718 95.0328 72.5029 98.7298 60.6154C102.418 48.7237 97.8915 35.8134 87.5801 28.8385Z" fill="#4285F4"/>
<path d="M28.0756 80.3538H49.7925V62.971H28.0756C26.5289 62.971 24.999 62.6399 23.5906 61.9944L20.5391 62.9375L11.7869 71.631L11.024 74.6825C15.9325 78.3879 21.9223 80.3789 28.0756 80.3538Z" fill="#34A853"/>
<path d="M28.0756 23.9594C16.012 24.0306 5.32753 31.7558 1.4796 43.1864C-2.36833 54.617 1.46702 67.2339 11.0282 74.586L23.6241 61.9901C18.1581 59.5212 15.7312 53.0913 18.2001 47.6254C20.6689 42.1595 27.0989 39.7325 32.5648 42.2014C34.9708 43.2912 36.899 45.2194 37.9888 47.6254L50.5847 35.0295C45.2236 28.0253 36.8948 23.93 28.0756 23.9594Z" fill="#FBBC05"/>
</g>
<defs>
<clipPath id="clip0_867_20632">
<rect width="100" height="80.4753" fill="white"/>
</clipPath>
</defs>
</svg>
